<?xml version="1.0" encoding="UTF-8" standalone="no"?>
<svg
   xmlns:dc="http://purl.org/dc/elements/1.1/"
   xmlns:cc="http://web.resource.org/cc/"
   xmlns:rdf="http://www.w3.org/1999/02/22-rdf-syntax-ns#"
   xmlns:svg="http://www.w3.org/2000/svg"
   xmlns="http://www.w3.org/2000/svg"
   xmlns:sodipodi="http://sodipodi.sourceforge.net/DTD/sodipodi-0.dtd"
   xmlns:inkscape="http://www.inkscape.org/namespaces/inkscape"
   version="1.0"
   width="600"
   height="500"
   id="svg2"
   sodipodi:version="0.32"
   inkscape:version="0.45.1"
   sodipodi:docname="Uwaga.svg"
   inkscape:output_extension="org.inkscape.output.svg.inkscape"
   sodipodi:docbase="H:\m temp">
  <metadata
     id="metadata48">
    <rdf:RDF>
      <cc:Work
         rdf:about="">
        <dc:format>image/svg+xml</dc:format>
        <dc:type
           rdf:resource="http://purl.org/dc/dcmitype/StillImage" />
      </cc:Work>
    </rdf:RDF>
  </metadata>
  <sodipodi:namedview
     inkscape:window-height="544"
     inkscape:window-width="800"
     inkscape:pageshadow="2"
     inkscape:pageopacity="0.0"
     guidetolerance="10.0"
     gridtolerance="10.0"
     objecttolerance="10.0"
     borderopacity="1.0"
     bordercolor="#666666"
     pagecolor="#ffffff"
     id="base"
     showguides="true"
     inkscape:guide-bbox="true"
     inkscape:zoom="0.53315851"
     inkscape:cx="181.67863"
     inkscape:cy="173.21914"
     inkscape:window-x="-4"
     inkscape:window-y="-4"
     inkscape:current-layer="svg2" />
  <defs
     id="defs4">
    <linearGradient
       id="g1"
       x1="41.1948738"
       y1="616.477173"
       x2="118.931351"
       y2="527.555115"
       gradientUnits="userSpaceOnUse"
       gradientTransform="matrix(4.556763,0,0,-4.315033,37.49756,2758.519)">
      <stop
         offset="0"
         stop-color="#b00"
         id="stop7" />
      <stop
         offset="1"
         stop-color="#5f0000"
         id="stop9" />
    </linearGradient>
    <linearGradient
       id="g2"
       x1="530.809509"
       y1="486.631012"
       x2="174.805481"
       y2="211.22995"
       gradientUnits="userSpaceOnUse"
       gradientTransform="matrix(0.960006,0,0,0.960006,11.68071,9.787565)">
      <stop
         offset="0"
         stop-color="#9a0000"
         id="stop12" />
      <stop
         offset="1"
         stop-color="#f22803"
         id="stop14" />
    </linearGradient>
    <linearGradient
       id="g3"
       x1="187.873566"
       y1="224.598923"
       x2="581.837463"
       y2="483.100006"
       gradientUnits="userSpaceOnUse"
       gradientTransform="matrix(0.960006,0,0,0.960006,11.68071,9.787558)">
      <stop
         offset="0"
         stop-color="#ec6c60"
         id="stop17" />
      <stop
         offset="1"
         stop-color="#d11412"
         id="stop19" />
    </linearGradient>
    <linearGradient
       id="g4"
       x1="250.398453"
       y1="101.536331"
       x2="412.094299"
       y2="264.54187"
       gradientUnits="userSpaceOnUse"
       gradientTransform="matrix(0.960006,0,0,0.960006,11.68071,9.787565)">
      <stop
         offset="0"
         stop-color="#ffd9d9"
         id="stop22" />
      <stop
         offset="1"
         stop-color="#ff2727"
         id="stop24" />
    </linearGradient>
    <radialGradient
       id="g5"
       cx="295.471252"
       cy="186.096344"
       r="179.550003"
       gradientUnits="userSpaceOnUse"
       gradientTransform="matrix(1.14292e-8,1.531256,-0.876504,-2.165967e-5,462.7486,-245.0023)">
      <stop
         offset="0"
         stop-color="#fff"
         id="stop27" />
      <stop
         offset="0.5"
         stop-color="#fff"
         id="stop29" />
      <stop
         offset="1"
         stop-color="#d5d5d5"
         id="stop31" />
    </radialGradient>
  </defs>
  <path
     d="M 277.00252,19.841579 C 277.00252,19.841579 25.525396,439.53223 25.525396,439.53223 C 20.699993,447.54884 20.699993,457.45161 25.525396,465.46821 C 30.257992,473.39042 39.166403,478.38906 48.817187,478.38906 L 551.77147,478.38906 C 561.3294,478.38906 570.23785,473.39042 575.06321,465.46821 C 579.79579,457.45161 579.79579,447.54884 575.06321,439.53223 L 323.58612,19.841579 C 318.76075,11.825024 309.85229,6.8264604 300.29426,6.8264604 C 290.73634,6.8264604 281.82787,11.825024 277.00252,19.841579 z "
     style="fill:#ffffdc;fill-opacity:1"
     id="path33" />
  <path
     d="M 299.6464,25.1404 C 298.0144,25.1404 296.4783,26.0044 295.6143,27.34841 L 165.5336,240.9497 L 35.45283,454.5509 C 34.58882,455.8949 34.58882,457.6229 35.45283,458.9669 C 36.31683,460.3109 37.85284,461.1749 39.48485,461.1749 L 559.8079,461.1749 C 561.4399,461.1749 562.9759,460.3109 563.8399,458.9669 C 564.7039,457.6229 564.7039,455.8949 563.8399,454.5509 L 303.6784,27.34841 C 302.8144,26.0044 301.2784,25.1404 299.6464,25.1404 z "
     style="fill:none;stroke:#ff0000;stroke-width:35;stroke-linejoin:round;stroke-miterlimit:4;stroke-dasharray:none;stroke-opacity:1"
     id="path39" />
  <path
     d="M 286.4344 145.7244 L 129.2814 403.678 C 126.5934 408.1901 126.5934 413.7581 129.2814 418.1741 C 131.9695 422.6861 137.0575 425.4702 142.5295 425.4702 L 456.7395 425.4702 C 462.2115 425.4702 467.2996 422.6861 469.9876 418.1741 C 472.6756 413.6621 472.6756 408.1901 469.9876 403.678 L 312.9306 145.7244 C 310.2426 141.2124 305.1545 138.4284 299.6825 138.4284 C 294.2105 138.4284 289.1224 141.2124 286.4344 145.7244z"
     style="fill:#ffffdc;fill-opacity:1"
     id="path43" />
  <path
     d="M 287.64557,410.69055 C 278.64187,406.37825 271.78497,396.00935 271.78497,386.70645 C 271.78497,369.38475 289.88537,356.33655 307.01077,361.31295 C 318.56387,364.67025 326.41617,375.09605 326.31997,386.95055 C 326.23787,397.02055 321.87937,404.43875 312.98287,409.65045 C 306.17297,413.63965 294.77937,414.10725 287.64557,410.69055 z M 289.69197,342.29255 C 288.56647,341.67405 285.91567,339.52045 283.80167,337.50685 C 276.41517,330.47145 276.42437,330.53335 271.60947,255.25465 C 267.32927,188.33725 267.29387,187.29745 269.13047,182.49065 C 273.26217,171.67595 282.46837,166.94035 297.79727,167.74455 C 307.54097,168.25585 315.04507,171.67765 319.92277,177.83385 C 324.08917,183.09215 324.99497,186.06475 324.99117,194.46545 C 324.98707,203.59425 319.15557,315.54325 318.32667,322.40365 C 317.24137,331.38875 311.99537,338.68035 304.30627,341.89085 C 299.91247,343.72565 292.66237,343.92495 289.69197,342.29255 z "
     id="path45"
     style="fill:#000000" />
</svg>
